<mxfile host="app.diagrams.net" modified="2024-02-09T07:24:12.631Z" agent="Mozilla/5.0 (Macintosh; Intel Mac OS X 10_15_7) AppleWebKit/537.36 (KHTML, like Gecko) Chrome/121.0.0.0 Safari/537.36" etag="OCYGoxfVB6llR_Lsx1sS" version="23.1.2" type="github">
  <diagram name="Page-1" id="p3_Bfls0HIJl7nSXm-mF">
    <mxGraphModel dx="820" dy="522" grid="1" gridSize="10" guides="1" tooltips="1" connect="1" arrows="1" fold="1" page="1" pageScale="1" pageWidth="850" pageHeight="1100" math="0" shadow="0">
      <root>
        <mxCell id="0" />
        <mxCell id="1" parent="0" />
        <mxCell id="s60dKr3AMll4X8Ap8D_4-5" value="" style="group" vertex="1" connectable="0" parent="1">
          <mxGeometry x="300" y="200" width="78" height="138" as="geometry" />
        </mxCell>
        <mxCell id="s60dKr3AMll4X8Ap8D_4-4" value="&lt;b&gt;Query Logs&lt;/b&gt;" style="text;strokeColor=none;align=center;fillColor=none;html=1;verticalAlign=middle;whiteSpace=wrap;rounded=0;" vertex="1" parent="s60dKr3AMll4X8Ap8D_4-5">
          <mxGeometry x="3.5" width="71" height="30" as="geometry" />
        </mxCell>
        <mxCell id="s60dKr3AMll4X8Ap8D_4-22" value="" style="group" vertex="1" connectable="0" parent="s60dKr3AMll4X8Ap8D_4-5">
          <mxGeometry y="30" width="78" height="108" as="geometry" />
        </mxCell>
        <mxCell id="s60dKr3AMll4X8Ap8D_4-1" value="" style="sketch=0;outlineConnect=0;fontColor=#232F3E;gradientColor=none;fillColor=#232F3D;strokeColor=none;dashed=0;verticalLabelPosition=bottom;verticalAlign=top;align=center;html=1;fontSize=12;fontStyle=0;aspect=fixed;pointerEvents=1;shape=mxgraph.aws4.users;" vertex="1" parent="s60dKr3AMll4X8Ap8D_4-22">
          <mxGeometry width="78" height="78" as="geometry" />
        </mxCell>
        <mxCell id="s60dKr3AMll4X8Ap8D_4-3" value="Users" style="text;strokeColor=none;align=center;fillColor=none;html=1;verticalAlign=middle;whiteSpace=wrap;rounded=0;" vertex="1" parent="s60dKr3AMll4X8Ap8D_4-22">
          <mxGeometry x="9" y="78" width="60" height="30" as="geometry" />
        </mxCell>
        <mxCell id="s60dKr3AMll4X8Ap8D_4-14" value="" style="group" vertex="1" connectable="0" parent="1">
          <mxGeometry x="440" y="210" width="110" height="118" as="geometry" />
        </mxCell>
        <mxCell id="s60dKr3AMll4X8Ap8D_4-8" value="" style="sketch=0;points=[[0,0,0],[0.25,0,0],[0.5,0,0],[0.75,0,0],[1,0,0],[0,1,0],[0.25,1,0],[0.5,1,0],[0.75,1,0],[1,1,0],[0,0.25,0],[0,0.5,0],[0,0.75,0],[1,0.25,0],[1,0.5,0],[1,0.75,0]];outlineConnect=0;fontColor=#232F3E;fillColor=#8C4FFF;strokeColor=#ffffff;dashed=0;verticalLabelPosition=bottom;verticalAlign=top;align=center;html=1;fontSize=12;fontStyle=0;aspect=fixed;shape=mxgraph.aws4.resourceIcon;resIcon=mxgraph.aws4.athena;" vertex="1" parent="s60dKr3AMll4X8Ap8D_4-14">
          <mxGeometry x="16" width="78" height="78" as="geometry" />
        </mxCell>
        <mxCell id="s60dKr3AMll4X8Ap8D_4-12" value="&lt;b style=&quot;border-color: var(--border-color);&quot;&gt;Athena Partitioned Table&lt;/b&gt;" style="text;whiteSpace=wrap;html=1;align=center;" vertex="1" parent="s60dKr3AMll4X8Ap8D_4-14">
          <mxGeometry y="78" width="110" height="40" as="geometry" />
        </mxCell>
        <mxCell id="s60dKr3AMll4X8Ap8D_4-17" value="" style="group" vertex="1" connectable="0" parent="1">
          <mxGeometry x="610" y="210" width="106" height="96" as="geometry" />
        </mxCell>
        <mxCell id="s60dKr3AMll4X8Ap8D_4-6" value="" style="sketch=0;points=[[0,0,0],[0.25,0,0],[0.5,0,0],[0.75,0,0],[1,0,0],[0,1,0],[0.25,1,0],[0.5,1,0],[0.75,1,0],[1,1,0],[0,0.25,0],[0,0.5,0],[0,0.75,0],[1,0.25,0],[1,0.5,0],[1,0.75,0]];outlineConnect=0;fontColor=#232F3E;fillColor=#7AA116;strokeColor=#ffffff;dashed=0;verticalLabelPosition=bottom;verticalAlign=top;align=center;html=1;fontSize=12;fontStyle=0;aspect=fixed;shape=mxgraph.aws4.resourceIcon;resIcon=mxgraph.aws4.s3;" vertex="1" parent="s60dKr3AMll4X8Ap8D_4-17">
          <mxGeometry x="14" width="78" height="78" as="geometry" />
        </mxCell>
        <mxCell id="s60dKr3AMll4X8Ap8D_4-15" value="&lt;b&gt;50 GB of Data&lt;/b&gt;" style="text;whiteSpace=wrap;html=1;align=center;" vertex="1" parent="s60dKr3AMll4X8Ap8D_4-17">
          <mxGeometry y="78" width="106" height="18" as="geometry" />
        </mxCell>
        <mxCell id="s60dKr3AMll4X8Ap8D_4-19" style="edgeStyle=orthogonalEdgeStyle;rounded=0;orthogonalLoop=1;jettySize=auto;html=1;entryX=0;entryY=0.75;entryDx=0;entryDy=0;entryPerimeter=0;" edge="1" parent="1" source="s60dKr3AMll4X8Ap8D_4-1" target="s60dKr3AMll4X8Ap8D_4-8">
          <mxGeometry relative="1" as="geometry" />
        </mxCell>
        <mxCell id="s60dKr3AMll4X8Ap8D_4-20" style="edgeStyle=orthogonalEdgeStyle;rounded=0;orthogonalLoop=1;jettySize=auto;html=1;exitX=0;exitY=0.75;exitDx=0;exitDy=0;exitPerimeter=0;entryX=1;entryY=0.75;entryDx=0;entryDy=0;entryPerimeter=0;startArrow=classic;startFill=1;" edge="1" parent="1" source="s60dKr3AMll4X8Ap8D_4-6" target="s60dKr3AMll4X8Ap8D_4-8">
          <mxGeometry relative="1" as="geometry" />
        </mxCell>
      </root>
    </mxGraphModel>
  </diagram>
</mxfile>
